<svg xmlns="http://www.w3.org/2000/svg" xmlns:xlink="http://www.w3.org/1999/xlink" width="476" zoomAndPan="magnify" viewBox="0 0 357 91.5" height="122" preserveAspectRatio="xMidYMid meet" version="1.0"><defs><g/><clipPath id="35a2fedad2"><path d="M 0.96875 0 L 356.027344 0 L 356.027344 91.003906 L 0.96875 91.003906 Z M 0.96875 0 " clip-rule="nonzero"/></clipPath><clipPath id="c427fcfd7e"><path d="M 0.96875 19 L 50 19 L 50 89 L 0.96875 89 Z M 0.96875 19 " clip-rule="nonzero"/></clipPath><clipPath id="dc77abccb3"><path d="M 306 1 L 356.027344 1 L 356.027344 89 L 306 89 Z M 306 1 " clip-rule="nonzero"/></clipPath><clipPath id="33e618ef6e"><rect x="0" width="357" y="0" height="92"/></clipPath></defs><g clip-path="url(#35a2fedad2)"><g transform="matrix(1, 0, 0, 1, 0.000000000000000111, 0.000000000000004566)"><g clip-path="url(#33e618ef6e)"><g clip-path="url(#c427fcfd7e)"><g fill="#0a193b" fill-opacity="1"><g transform="translate(-5.234075, 88.640986)"><g><path d="M 52.921875 -16.609375 C 52.921875 -16.753906 53.070312 -16.828125 53.375 -16.828125 C 53.59375 -16.828125 53.796875 -16.789062 53.984375 -16.71875 C 54.171875 -16.644531 54.265625 -16.53125 54.265625 -16.375 C 53.597656 -11.695312 53.265625 -6.796875 53.265625 -1.671875 C 53.265625 -1.078125 53.132812 -0.648438 52.875 -0.390625 C 52.613281 -0.128906 52.148438 0 51.484375 0 L 4.796875 0 C 4.640625 0 4.5625 -0.222656 4.5625 -0.671875 C 4.5625 -1.117188 4.640625 -1.34375 4.796875 -1.34375 C 7.617188 -1.34375 9.675781 -1.523438 10.96875 -1.890625 C 12.269531 -2.265625 13.160156 -2.988281 13.640625 -4.0625 C 14.128906 -5.144531 14.375 -6.800781 14.375 -9.03125 L 14.375 -60.609375 C 14.375 -62.835938 14.128906 -64.472656 13.640625 -65.515625 C 13.160156 -66.554688 12.269531 -67.28125 10.96875 -67.6875 C 9.675781 -68.09375 7.617188 -68.296875 4.796875 -68.296875 C 4.640625 -68.296875 4.5625 -68.519531 4.5625 -68.96875 C 4.5625 -69.414062 4.640625 -69.640625 4.796875 -69.640625 L 49.578125 -69.640625 C 50.242188 -69.640625 50.578125 -69.304688 50.578125 -68.640625 L 50.8125 -54.9375 C 50.8125 -54.707031 50.625 -54.570312 50.25 -54.53125 C 49.875 -54.5 49.648438 -54.59375 49.578125 -54.8125 C 49.359375 -58.75 48.171875 -61.8125 46.015625 -64 C 43.859375 -66.195312 41 -67.296875 37.4375 -67.296875 L 30.640625 -67.296875 C 28.035156 -67.296875 26.117188 -67.09375 24.890625 -66.6875 C 23.671875 -66.28125 22.816406 -65.570312 22.328125 -64.5625 C 21.847656 -63.5625 21.609375 -62.0625 21.609375 -60.0625 L 21.609375 -37.4375 L 35.203125 -37.4375 C 38.773438 -37.4375 41.320312 -38.03125 42.84375 -39.21875 C 44.363281 -40.40625 45.125 -42.410156 45.125 -45.234375 C 45.125 -45.378906 45.347656 -45.453125 45.796875 -45.453125 C 46.242188 -45.453125 46.46875 -45.378906 46.46875 -45.234375 L 46.34375 -36.21875 C 46.34375 -34.0625 46.382812 -32.425781 46.46875 -31.3125 L 46.578125 -25.96875 C 46.578125 -25.8125 46.351562 -25.734375 45.90625 -25.734375 C 45.457031 -25.734375 45.234375 -25.8125 45.234375 -25.96875 C 45.234375 -29.226562 44.4375 -31.5625 42.84375 -32.96875 C 41.25 -34.382812 38.59375 -35.09375 34.875 -35.09375 L 21.609375 -35.09375 L 21.609375 -9.46875 C 21.609375 -7.382812 21.832031 -5.859375 22.28125 -4.890625 C 22.726562 -3.929688 23.546875 -3.265625 24.734375 -2.890625 C 25.921875 -2.523438 27.78125 -2.34375 30.3125 -2.34375 L 39.21875 -2.34375 C 42.78125 -2.34375 45.75 -3.601562 48.125 -6.125 C 50.507812 -8.65625 52.109375 -12.148438 52.921875 -16.609375 Z M 52.921875 -16.609375 "/></g></g></g></g><g fill="#0a193b" fill-opacity="1"><g transform="translate(68.192375, 88.640986)"><g><path d="M 20.609375 -9.46875 C 20.609375 -7.3125 20.832031 -5.75 21.28125 -4.78125 C 21.726562 -3.820312 22.546875 -3.175781 23.734375 -2.84375 C 24.921875 -2.507812 26.851562 -2.34375 29.53125 -2.34375 L 41.671875 -2.34375 C 45.898438 -2.34375 49.273438 -3.640625 51.796875 -6.234375 C 54.328125 -8.835938 56.003906 -12.441406 56.828125 -17.046875 C 56.828125 -17.265625 57.03125 -17.351562 57.4375 -17.3125 C 57.84375 -17.28125 58.046875 -17.15625 58.046875 -16.9375 C 57.378906 -10.769531 57.046875 -5.679688 57.046875 -1.671875 C 57.046875 -1.078125 56.929688 -0.648438 56.703125 -0.390625 C 56.484375 -0.128906 56.039062 0 55.375 0 L 3.90625 0 C 3.75 0 3.671875 -0.222656 3.671875 -0.671875 C 3.671875 -1.117188 3.75 -1.34375 3.90625 -1.34375 C 6.726562 -1.34375 8.785156 -1.523438 10.078125 -1.890625 C 11.378906 -2.265625 12.253906 -2.988281 12.703125 -4.0625 C 13.148438 -5.144531 13.375 -6.800781 13.375 -9.03125 L 13.375 -60.609375 C 13.375 -62.835938 13.148438 -64.472656 12.703125 -65.515625 C 12.253906 -66.554688 11.378906 -67.28125 10.078125 -67.6875 C 8.785156 -68.09375 6.726562 -68.296875 3.90625 -68.296875 C 3.75 -68.296875 3.671875 -68.519531 3.671875 -68.96875 C 3.671875 -69.414062 3.75 -69.640625 3.90625 -69.640625 L 9.359375 -69.53125 C 12.484375 -69.375 15.007812 -69.296875 16.9375 -69.296875 C 19.019531 -69.296875 21.617188 -69.375 24.734375 -69.53125 L 30.078125 -69.640625 C 30.304688 -69.640625 30.421875 -69.414062 30.421875 -68.96875 C 30.421875 -68.519531 30.304688 -68.296875 30.078125 -68.296875 C 27.335938 -68.296875 25.316406 -68.09375 24.015625 -67.6875 C 22.710938 -67.28125 21.816406 -66.535156 21.328125 -65.453125 C 20.847656 -64.378906 20.609375 -62.726562 20.609375 -60.5 Z M 20.609375 -9.46875 "/></g></g></g><g fill="#0a193b" fill-opacity="1"><g transform="translate(141.173148, 88.640986)"><g><path d="M 52.921875 -16.609375 C 52.921875 -16.753906 53.070312 -16.828125 53.375 -16.828125 C 53.59375 -16.828125 53.796875 -16.789062 53.984375 -16.71875 C 54.171875 -16.644531 54.265625 -16.53125 54.265625 -16.375 C 53.597656 -11.695312 53.265625 -6.796875 53.265625 -1.671875 C 53.265625 -1.078125 53.132812 -0.648438 52.875 -0.390625 C 52.613281 -0.128906 52.148438 0 51.484375 0 L 4.796875 0 C 4.640625 0 4.5625 -0.222656 4.5625 -0.671875 C 4.5625 -1.117188 4.640625 -1.34375 4.796875 -1.34375 C 7.617188 -1.34375 9.675781 -1.523438 10.96875 -1.890625 C 12.269531 -2.265625 13.160156 -2.988281 13.640625 -4.0625 C 14.128906 -5.144531 14.375 -6.800781 14.375 -9.03125 L 14.375 -60.609375 C 14.375 -62.835938 14.128906 -64.472656 13.640625 -65.515625 C 13.160156 -66.554688 12.269531 -67.28125 10.96875 -67.6875 C 9.675781 -68.09375 7.617188 -68.296875 4.796875 -68.296875 C 4.640625 -68.296875 4.5625 -68.519531 4.5625 -68.96875 C 4.5625 -69.414062 4.640625 -69.640625 4.796875 -69.640625 L 49.578125 -69.640625 C 50.242188 -69.640625 50.578125 -69.304688 50.578125 -68.640625 L 50.8125 -54.9375 C 50.8125 -54.707031 50.625 -54.570312 50.25 -54.53125 C 49.875 -54.5 49.648438 -54.59375 49.578125 -54.8125 C 49.359375 -58.75 48.171875 -61.8125 46.015625 -64 C 43.859375 -66.195312 41 -67.296875 37.4375 -67.296875 L 30.640625 -67.296875 C 28.035156 -67.296875 26.117188 -67.09375 24.890625 -66.6875 C 23.671875 -66.28125 22.816406 -65.570312 22.328125 -64.5625 C 21.847656 -63.5625 21.609375 -62.0625 21.609375 -60.0625 L 21.609375 -37.4375 L 35.203125 -37.4375 C 38.773438 -37.4375 41.320312 -38.03125 42.84375 -39.21875 C 44.363281 -40.40625 45.125 -42.410156 45.125 -45.234375 C 45.125 -45.378906 45.347656 -45.453125 45.796875 -45.453125 C 46.242188 -45.453125 46.46875 -45.378906 46.46875 -45.234375 L 46.34375 -36.21875 C 46.34375 -34.0625 46.382812 -32.425781 46.46875 -31.3125 L 46.578125 -25.96875 C 46.578125 -25.8125 46.351562 -25.734375 45.90625 -25.734375 C 45.457031 -25.734375 45.234375 -25.8125 45.234375 -25.96875 C 45.234375 -29.226562 44.4375 -31.5625 42.84375 -32.96875 C 41.25 -34.382812 38.59375 -35.09375 34.875 -35.09375 L 21.609375 -35.09375 L 21.609375 -9.46875 C 21.609375 -7.382812 21.832031 -5.859375 22.28125 -4.890625 C 22.726562 -3.929688 23.546875 -3.265625 24.734375 -2.890625 C 25.921875 -2.523438 27.78125 -2.34375 30.3125 -2.34375 L 39.21875 -2.34375 C 42.78125 -2.34375 45.75 -3.601562 48.125 -6.125 C 50.507812 -8.65625 52.109375 -12.148438 52.921875 -16.609375 Z M 52.921875 -16.609375 "/></g></g></g><g fill="#0a193b" fill-opacity="1"><g transform="translate(214.599582, 88.640986)"><g><path d="M 74.546875 -69.640625 C 74.765625 -69.640625 74.875 -69.414062 74.875 -68.96875 C 74.875 -68.519531 74.765625 -68.296875 74.546875 -68.296875 C 72.015625 -68.296875 69.820312 -67.628906 67.96875 -66.296875 C 66.113281 -64.960938 64.550781 -62.695312 63.28125 -59.5 L 39.5625 -0.109375 C 39.476562 0.179688 39.066406 0.328125 38.328125 0.328125 C 37.734375 0.328125 37.328125 0.179688 37.109375 -0.109375 L 9.359375 -60.390625 C 8.097656 -63.285156 6.757812 -65.328125 5.34375 -66.515625 C 3.9375 -67.703125 2.117188 -68.296875 -0.109375 -68.296875 C -0.335938 -68.296875 -0.453125 -68.519531 -0.453125 -68.96875 C -0.453125 -69.414062 -0.335938 -69.640625 -0.109375 -69.640625 L 4.125 -69.53125 C 6.207031 -69.375 7.878906 -69.296875 9.140625 -69.296875 C 12.109375 -69.296875 15.300781 -69.375 18.71875 -69.53125 L 23.28125 -69.640625 C 23.507812 -69.640625 23.625 -69.414062 23.625 -68.96875 C 23.625 -68.519531 23.507812 -68.296875 23.28125 -68.296875 C 18.675781 -68.296875 16.375 -67 16.375 -64.40625 C 16.375 -63.507812 16.707031 -62.320312 17.375 -60.84375 L 40.671875 -9.8125 L 60.71875 -60.0625 C 61.3125 -61.613281 61.609375 -62.835938 61.609375 -63.734375 C 61.609375 -65.296875 60.898438 -66.445312 59.484375 -67.1875 C 58.078125 -67.925781 55.890625 -68.296875 52.921875 -68.296875 C 52.703125 -68.296875 52.59375 -68.519531 52.59375 -68.96875 C 52.59375 -69.414062 52.703125 -69.640625 52.921875 -69.640625 L 57.71875 -69.53125 C 60.238281 -69.375 62.539062 -69.296875 64.625 -69.296875 C 66.1875 -69.296875 67.929688 -69.375 69.859375 -69.53125 Z M 74.546875 -69.640625 "/></g></g></g><g clip-path="url(#dc77abccb3)"><g fill="#0a193b" fill-opacity="1"><g transform="translate(302.399305, 88.640986)"><g><path d="M 21.5 -75.546875 C 21.207031 -75.546875 21.019531 -75.710938 20.9375 -76.046875 C 20.863281 -76.378906 20.941406 -76.617188 21.171875 -76.765625 C 23.617188 -78.109375 27.664062 -80.410156 33.3125 -83.671875 C 34.65625 -84.566406 35.828125 -85.3125 36.828125 -85.90625 C 37.828125 -86.5 38.660156 -86.984375 39.328125 -87.359375 C 39.628906 -87.503906 40.503906 -87.332031 41.953125 -86.84375 C 43.398438 -86.363281 44.644531 -85.828125 45.6875 -85.234375 C 46.726562 -84.640625 46.988281 -84.304688 46.46875 -84.234375 C 41.863281 -83.117188 37.644531 -81.875 33.8125 -80.5 C 29.988281 -79.125 25.960938 -77.507812 21.734375 -75.65625 Z M 52.921875 -16.609375 C 52.921875 -16.753906 53.070312 -16.828125 53.375 -16.828125 C 53.59375 -16.828125 53.796875 -16.789062 53.984375 -16.71875 C 54.171875 -16.644531 54.265625 -16.53125 54.265625 -16.375 C 53.597656 -11.695312 53.265625 -6.796875 53.265625 -1.671875 C 53.265625 -1.078125 53.132812 -0.648438 52.875 -0.390625 C 52.613281 -0.128906 52.148438 0 51.484375 0 L 4.796875 0 C 4.640625 0 4.5625 -0.222656 4.5625 -0.671875 C 4.5625 -1.117188 4.640625 -1.34375 4.796875 -1.34375 C 7.617188 -1.34375 9.675781 -1.523438 10.96875 -1.890625 C 12.269531 -2.265625 13.160156 -2.988281 13.640625 -4.0625 C 14.128906 -5.144531 14.375 -6.800781 14.375 -9.03125 L 14.375 -60.609375 C 14.375 -62.835938 14.128906 -64.472656 13.640625 -65.515625 C 13.160156 -66.554688 12.269531 -67.28125 10.96875 -67.6875 C 9.675781 -68.09375 7.617188 -68.296875 4.796875 -68.296875 C 4.640625 -68.296875 4.5625 -68.519531 4.5625 -68.96875 C 4.5625 -69.414062 4.640625 -69.640625 4.796875 -69.640625 L 49.578125 -69.640625 C 50.242188 -69.640625 50.578125 -69.304688 50.578125 -68.640625 L 50.8125 -54.9375 C 50.8125 -54.707031 50.625 -54.570312 50.25 -54.53125 C 49.875 -54.5 49.648438 -54.59375 49.578125 -54.8125 C 49.359375 -58.75 48.171875 -61.8125 46.015625 -64 C 43.859375 -66.195312 41 -67.296875 37.4375 -67.296875 L 30.640625 -67.296875 C 28.035156 -67.296875 26.117188 -67.09375 24.890625 -66.6875 C 23.671875 -66.28125 22.816406 -65.570312 22.328125 -64.5625 C 21.847656 -63.5625 21.609375 -62.0625 21.609375 -60.0625 L 21.609375 -37.4375 L 35.203125 -37.4375 C 38.773438 -37.4375 41.320312 -38.03125 42.84375 -39.21875 C 44.363281 -40.40625 45.125 -42.410156 45.125 -45.234375 C 45.125 -45.378906 45.347656 -45.453125 45.796875 -45.453125 C 46.242188 -45.453125 46.46875 -45.378906 46.46875 -45.234375 L 46.34375 -36.21875 C 46.34375 -34.0625 46.382812 -32.425781 46.46875 -31.3125 L 46.578125 -25.96875 C 46.578125 -25.8125 46.351562 -25.734375 45.90625 -25.734375 C 45.457031 -25.734375 45.234375 -25.8125 45.234375 -25.96875 C 45.234375 -29.226562 44.4375 -31.5625 42.84375 -32.96875 C 41.25 -34.382812 38.59375 -35.09375 34.875 -35.09375 L 21.609375 -35.09375 L 21.609375 -9.46875 C 21.609375 -7.382812 21.832031 -5.859375 22.28125 -4.890625 C 22.726562 -3.929688 23.546875 -3.265625 24.734375 -2.890625 C 25.921875 -2.523438 27.78125 -2.34375 30.3125 -2.34375 L 39.21875 -2.34375 C 42.78125 -2.34375 45.75 -3.601562 48.125 -6.125 C 50.507812 -8.65625 52.109375 -12.148438 52.921875 -16.609375 Z M 52.921875 -16.609375 "/></g></g></g></g></g></g></g></svg>